# Created by MKDS Course Modifier
mtllib Mailbox.mtl
g polygon0
usemtl board_b
v -1.5 2 0
v -1.5 2 4
v -1.5 14.625 4
v -1.5 14.625 0
v 1.5 2 4
v 1.5 2 0
v 1.5 14.625 0
v 1.5 14.625 4
v -1.5 2 4
v 1.5 2 4
v 1.5 14.625 4
v -1.5 14.625 4
vn -1 0 0
vn -1 0 0
vn -1 0 0
vn -1 0 0
vn 0.9980469 0 0
vn 0.9980469 0 0
vn 0.9980469 0 0
vn 0.9980469 0 0
vn 0 0 0.9980469
vn 0 0 0.9980469
vn 0 0 0.9980469
vn 0 0 0.9980469
vt 0.7832031 -0.6132813
vt 0.9707031 -0.6132813
vt 0.9707031 -0.5195313
vt 0.7832031 -0.5195313
vt 0.78125 -0.59375
vt 0.96875 -0.59375
vt 0.96875 -0.53125
vt 0.78125 -0.53125
vt 0.78125 -0.71875
vt 0.96875 -0.71875
vt 0.96875 -0.65625
vt 0.78125 -0.65625
f 1/1/1 2/2/2 3/3/3 4/4/4
f 5/5/5 6/6/6 7/7/7 8/8/8
f 9/9/9 10/10/10 11/11/11 12/12/12
g polygon1
usemtl h_kage
v 8 1 5
v 8 1 -1
v 4 1 8
v 4 1 -4
v -4 1 8
v -4 1 -4
v -8 1 5
v -8 1 -1
vn 0 0.9980469 0
vn 0 0.9980469 0
vn 0 0.9980469 0
vn 0 0.9980469 0
vn 0 0.9980469 0
vn 0 0.9980469 0
vn 0 0.9980469 0
vn 0 0.9980469 0
vt 0 0
vt 1 0
vt 0 -0.1328125
vt 1 -0.1328125
vt 0 -0.8828125
vt 1 -0.8828125
vt 0 -1
vt 1 -1
f 13/13/13 14/14/14 15/15/15
f 14/14/14 16/16/16 15/15/15
f 15/15/15 16/16/16 17/17/17
f 16/16/16 18/18/18 17/17/17
f 17/17/17 18/18/18 19/19/19
f 18/18/18 20/20/20 19/19/19
g polygon2
usemtl board_a
v 0 15.125 8.5
v 0 21.375 8.5
v -5.5 15.125 8.5
v -3 21.375 8.5
v -5.5 26.375 8.5
v -3 24.375 8.5
v 0 26.375 8.5
v 0 24.375 8.5
v 5.5 26.375 8.5
v 3 24.375 8.5
v 5.5 15.125 8.5
v 3 21.375 8.5
v 0 15.125 8.5
v 0 21.375 8.5
vn 0 0 0.9980469
vn 0 0 0.9980469
vn 0 0 0.9980469
vn 0 0 0.9980469
vn 0 0 0.9980469
vn 0 0 0.9980469
vn 0 0 0.9980469
vn 0 0 0.9980469
vn 0 0 0.9980469
vn 0 0 0.9980469
vn 0 0 0.9980469
vn 0 0 0.9980469
vn 0 0 0.9980469
vn 0 0 0.9980469
vt 0.75 -0.46875
vt 0.75 -0.34375
vt 0.53125 -0.46875
vt 0.65625 -0.34375
vt 0.53125 -0.25
vt 0.65625 -0.28125
vt 0.75 -0.25
vt 0.75 -0.28125
vt 0.96875 -0.25
vt 0.84375 -0.28125
vt 0.96875 -0.46875
vt 0.84375 -0.34375
vt 0.75 -0.46875
vt 0.75 -0.34375
f 21/21/21 22/22/22 23/23/23
f 22/22/22 24/24/24 23/23/23
f 23/23/23 24/24/24 25/25/25
f 24/24/24 26/26/26 25/25/25
f 25/25/25 26/26/26 27/27/27
f 26/26/26 28/28/28 27/27/27
f 27/27/27 28/28/28 29/29/29
f 28/28/28 30/30/30 29/29/29
f 29/29/29 30/30/30 31/31/31
f 30/30/30 32/32/32 31/31/31
f 31/31/31 32/32/32 33/33/33
f 32/32/32 34/34/34 33/33/33
v -5.5 15.125 -4.5
v -5.5 15.125 8.5
v -5.5 26.375 -4.5
v -5.5 26.375 8.5
v -3.157227 29.03223 -4.5
v -3.157227 29.03223 8.5
vn -1 0 0
vn -1 0 0
vn -0.9355469 0.3535156 0
vn -0.9355469 0.3535156 0
vn -0.5859375 0.8105469 0
vn -0.5859375 0.8105469 0
vt 0.53125 -0.96875
vt 0.71875 -0.96875
vt 0.53125 -0.8125
vt 0.71875 -0.8125
vt 0.53125 -0.6875
vt 0.71875 -0.6875
f 35/35/35 36/36/36 37/37/37
f 36/36/36 38/38/38 37/37/37
f 37/37/37 38/38/38 39/39/39
f 38/38/38 40/40/40 39/39/39
v -3 24.375 8.5
v -3 21.375 8.5
v 0 24.375 8.5
v 0 21.375 8.5
v 3 24.375 8.5
v 3 21.375 8.5
vn 0 0 0.9980469
vn 0 0 0.9980469
vn 0 0 0.9980469
vn 0 0 0.9980469
vn 0 0 0.9980469
vn 0 0 0.9980469
vt 0.78125 -0.78125
vt 0.78125 -0.96875
vt 0.875 -0.78125
vt 0.875 -0.96875
vt 0.96875 -0.78125
vt 0.96875 -0.96875
f 41/41/41 42/42/42 43/43/43
f 42/42/42 44/44/44 43/43/43
f 43/43/43 44/44/44 45/45/45
f 44/44/44 46/46/46 45/45/45
v 5.5 15.125 8.5
v 5.5 15.125 -4.5
v 5.5 26.375 8.5
v 5.5 26.375 -4.5
v 3.157227 29.03223 8.5
v 3.157227 29.03223 -4.5
vn 0.9980469 0 0
vn 0.9980469 0 0
vn 0.9355469 0.3535156 0
vn 0.9355469 0.3535156 0
vn 0.5859375 0.8105469 0
vn 0.5859375 0.8105469 0
vt 0.53125 -0.96875
vt 0.71875 -0.96875
vt 0.53125 -0.8125
vt 0.71875 -0.8125
vt 0.53125 -0.6875
vt 0.71875 -0.6875
f 47/47/47 48/48/48 49/49/49
f 48/48/48 50/50/50 49/49/49
f 49/49/49 50/50/50 51/51/51
f 50/50/50 52/52/52 51/51/51
v 5.5 26.375 8.5
v 3.157227 29.03223 8.5
v 0 26.375 8.5
v 0 30.375 8.5
v -3.157227 29.03223 8.5
vn 0 0 0.9980469
vn 0 0 0.9980469
vn 0 0 0.9980469
vn 0 0 0.9980469
vn 0 0 0.9980469
vt 0.96875 -0.25
vt 0.9375 -0.125
vt 0.75 -0.25
vt 0.75 -0.03125
vt 0.5625 -0.125
f 53/53/53 54/54/54 55/55/55
f 54/54/54 56/56/56 55/55/55
f 55/55/55 56/56/56 57/57/57
v 0 30.375 -4.5
v -3.157227 29.03223 -4.5
v -3.157227 29.03223 8.5
v 0 30.375 8.5
v 3.157227 29.03223 -4.5
v 0 30.375 -4.5
v 0 30.375 8.5
v 3.157227 29.03223 8.5
vn 0 0.9980469 0
vn -0.5859375 0.8105469 0
vn -0.5859375 0.8105469 0
vn 0 0.9980469 0
vn 0.5859375 0.8105469 0
vn 0 0.9980469 0
vn 0 0.9980469 0
vn 0.5859375 0.8105469 0
vt 0.71875 -0.53125
vt 0.71875 -0.6875
vt 0.53125 -0.6875
vt 0.53125 -0.53125
vt 0.53125 -0.6875
vt 0.53125 -0.53125
vt 0.71875 -0.53125
vt 0.71875 -0.6875
f 58/58/58 59/59/59 60/60/60 61/61/61
f 62/62/62 63/63/63 64/64/64 65/65/65
v -3.157227 29.03223 8.5
v -5.5 26.375 8.5
v 0 26.375 8.5
vn 0 0 0.9980469
vn 0 0 0.9980469
vn 0 0 0.9980469
vt 0.5625 -0.125
vt 0.53125 -0.25
vt 0.75 -0.25
f 66/66/66 67/67/67 68/68/68
