# Blender v2.75 (sub 0) OBJ File: ''
# www.blender.org
mtllib Small Sofa.mtl
o polygon1
v -33.000000 1.000000 2.500000
v -35.500000 1.000000 2.500000
v -33.000000 1.000000 0.000000
v -35.500000 1.000000 0.000000
v -33.000000 1.000001 -7.000000
v -35.500000 1.000001 -7.000000
v -33.000000 1.000004 -25.000000
v -35.500000 1.000004 -25.000000
v -33.000000 5.000004 -25.000000
v -35.500000 5.000004 -25.000000
v -33.000000 5.500004 -25.000000
v -35.500000 5.500004 -25.000000
v -34.500000 8.500004 -24.999998
v -36.500000 7.500004 -24.999998
v -36.000000 9.500004 -24.999998
v -37.500000 8.789066 -24.999998
v -37.500000 10.000004 -24.999998
v -38.000000 9.500004 -24.999998
v -37.500000 10.000001 -6.999999
v -38.000000 9.500001 -6.999999
v -37.500000 10.000000 0.000002
v -38.000000 9.500000 0.000002
v -37.500000 10.000000 2.500002
v -38.000000 9.500000 2.500001
v -36.000000 9.500000 2.500001
v -37.500000 8.789062 2.500001
v -34.500000 8.500000 2.500001
v -36.500000 7.500000 2.500001
v -33.000000 5.500000 2.500001
v -35.500000 5.500000 2.500001
v -33.000000 5.000000 2.500001
v -35.500000 5.000000 2.500001
v -33.000000 1.000000 2.500000
v -35.500000 1.000000 2.500000
v 0.000000 1.000000 2.500000
v 2.500000 1.000000 2.500000
v 0.000000 5.000000 2.500001
v 2.500000 5.000000 2.500001
v 0.000000 5.500000 2.500001
v 2.500000 5.500000 2.500001
v 1.500000 8.500000 2.500001
v 3.500000 7.500000 2.500001
v 3.000000 9.500000 2.500001
v 4.500000 8.789062 2.500001
v 4.500000 10.000000 2.500002
v 5.000000 9.500000 2.500001
v 4.500000 10.000000 0.000002
v 5.000000 9.500000 0.000002
v 4.500000 10.000001 -6.999999
v 5.000000 9.500001 -6.999999
v 4.500000 10.000004 -24.999998
v 5.000000 9.500004 -24.999998
v 3.000000 9.500004 -24.999998
v 4.500000 8.789066 -24.999998
v 1.500000 8.500004 -24.999998
v 3.500000 7.500004 -24.999998
v 0.000000 5.500004 -25.000000
v 2.500000 5.500004 -25.000000
v 0.000000 5.000004 -25.000000
v 2.500000 5.000004 -25.000000
v 0.000000 1.000004 -25.000000
v 2.500000 1.000004 -25.000000
v 1.500000 8.500000 0.000001
v 1.000000 10.000000 1.000002
v 1.500000 8.500000 2.500001
v 1.000000 10.000000 2.500002
v -34.500000 8.500000 2.500001
v -34.000000 10.000000 2.500002
v -34.500000 8.500000 0.000001
v -34.000000 10.000000 1.000002
v 1.500000 8.500000 0.000001
v 1.000000 10.000000 1.000002
v 2.500000 5.500004 -25.000000
v 3.500000 7.500004 -24.999998
v 2.500000 5.500001 -6.999999
v 3.500000 7.500001 -6.999999
v 2.500000 5.500000 0.000001
v 3.500000 7.500000 0.000001
v 2.500000 5.500000 2.500001
v 3.500000 7.500000 2.500001
v -33.000000 5.500001 -6.999999
v -33.000000 5.500004 -25.000000
v -34.500000 8.500001 -6.999999
v -34.500000 8.500004 -24.999998
v -36.000000 9.500001 -6.999999
v -36.000000 9.500004 -24.999998
v -37.500000 10.000001 -6.999999
v -37.500000 10.000004 -24.999998
v 3.500000 7.500004 -24.999998
v 4.500000 8.789066 -24.999998
v 3.500000 7.500001 -6.999999
v 4.500000 8.789063 -6.999999
v 3.500000 7.500000 0.000001
v 4.500000 8.789062 0.000001
v 3.500000 7.500000 2.500001
v 4.500000 8.789062 2.500001
v 0.000000 5.500004 -25.000000
v 0.000000 5.500001 -6.999999
v 1.500000 8.500004 -24.999998
v 1.500000 8.500001 -6.999999
v 3.000000 9.500004 -24.999998
v 3.000000 9.500001 -6.999999
v 4.500000 10.000004 -24.999998
v 4.500000 10.000001 -6.999999
v 4.500000 8.789066 -24.999998
v 5.000000 9.500004 -24.999998
v 4.500000 8.789063 -6.999999
v 5.000000 9.500001 -6.999999
v 4.500000 8.789062 0.000001
v 5.000000 9.500000 0.000002
v 4.500000 8.789062 2.500001
v 5.000000 9.500000 2.500001
v 2.500000 1.000004 -25.000000
v 2.500000 5.000004 -25.000000
v 2.500000 1.000001 -7.000000
v 2.500000 5.000001 -6.999999
v 2.500000 1.000000 0.000000
v 2.500000 5.000000 0.000001
v 2.500000 1.000000 2.500000
v 2.500000 5.000000 2.500001
v 2.500000 5.500000 2.500001
v 2.500000 5.000000 2.500001
v 2.500000 5.500000 0.000001
v 2.500000 5.000000 0.000001
v 2.500000 5.500001 -6.999999
v 2.500000 5.000001 -6.999999
v 2.500000 5.500004 -25.000000
v 2.500000 5.000004 -25.000000
v -35.500000 5.000000 2.500001
v -35.500000 5.500000 2.500001
v -35.500000 5.000000 0.000001
v -35.500000 5.500000 0.000001
v -35.500000 5.000001 -6.999999
v -35.500000 5.500001 -6.999999
v -35.500000 5.000004 -25.000000
v -35.500000 5.500004 -25.000000
v -35.500000 1.000000 2.500000
v -35.500000 5.000000 2.500001
v -35.500000 1.000000 0.000000
v -35.500000 5.000000 0.000001
v -35.500000 1.000001 -7.000000
v -35.500000 5.000001 -6.999999
v -35.500000 1.000004 -25.000000
v -35.500000 5.000004 -25.000000
v -37.500000 8.789062 2.500001
v -38.000000 9.500000 2.500001
v -37.500000 8.789062 0.000001
v -38.000000 9.500000 0.000002
v -37.500000 8.789063 -6.999999
v -38.000000 9.500001 -6.999999
v -37.500000 8.789066 -24.999998
v -38.000000 9.500004 -24.999998
v -36.500000 7.500000 2.500001
v -37.500000 8.789062 2.500001
v -36.500000 7.500000 0.000001
v -37.500000 8.789062 0.000001
v -36.500000 7.500001 -6.999999
v -37.500000 8.789063 -6.999999
v -36.500000 7.500004 -24.999998
v -37.500000 8.789066 -24.999998
v -35.500000 5.500000 2.500001
v -36.500000 7.500000 2.500001
v -35.500000 5.500000 0.000001
v -36.500000 7.500000 0.000001
v -35.500000 5.500001 -6.999999
v -36.500000 7.500001 -6.999999
v -35.500000 5.500004 -25.000000
v -36.500000 7.500004 -24.999998
v -36.000000 9.500001 -6.999999
v -37.500000 10.000001 -6.999999
v -36.000000 9.500000 0.000002
v -37.500000 10.000000 0.000002
v -36.000000 9.500000 2.500001
v -37.500000 10.000000 2.500002
v -33.000000 1.000001 -7.000000
v -33.000000 1.000004 -25.000000
v -33.000000 5.000001 -6.999999
v -33.000000 5.000004 -25.000000
v -33.000000 5.500001 -6.999999
v -33.000000 5.500004 -25.000000
v 0.000000 5.500000 2.500001
v -33.000000 5.500000 2.500001
v 0.000000 5.000000 2.500001
v -33.000000 5.000000 2.500001
v 0.000000 1.000000 2.500000
v -33.000000 1.000000 2.500000
v 0.000000 5.000000 2.500001
v 0.000000 5.500000 2.500001
v 0.000000 5.000001 -6.999999
v 0.000000 5.500001 -6.999999
v 0.000000 5.000004 -25.000000
v 0.000000 5.500004 -25.000000
v 0.000000 1.000000 2.500000
v 0.000000 5.000000 2.500001
v 0.000000 1.000001 -7.000000
v 0.000000 5.000001 -6.999999
v 0.000000 1.000004 -25.000000
v 0.000000 5.000004 -25.000000
v 4.500000 10.000001 -6.999999
v 3.000000 9.500001 -6.999999
v 4.500000 10.000000 0.000002
v 3.000000 9.500000 0.000002
v 4.500000 10.000000 2.500002
v 3.000000 9.500000 2.500001
v 1.500000 8.500001 -6.999999
v 0.000000 5.500001 -6.999999
v 1.500000 8.500000 0.000001
v 0.000000 5.500000 2.500001
v 1.500000 8.500000 2.500001
v 2.500000 1.000001 -7.000000
v 2.500000 1.000000 0.000000
v 0.000000 1.000001 -7.000000
v 0.000000 1.000000 2.500000
v -34.500000 8.500000 0.000001
v -34.500000 8.500000 2.500001
v -34.500000 8.500001 -6.999999
v -33.000000 5.500001 -6.999999
v -33.000000 5.000001 -6.999999
v -33.000000 5.000000 2.500001
v -33.000000 1.000001 -7.000000
v -33.000000 1.000000 0.000000
v 0.000000 5.500000 2.500001
v 1.500000 8.500000 2.500001
v -34.500000 8.500000 2.500001
v -33.000000 5.500000 2.500001
v -33.000000 5.000000 2.500001
v -33.000000 5.000001 -6.999999
v -33.000000 5.500001 -6.999999
v -33.000000 5.500000 2.500001
v 3.000000 9.500000 0.000002
v 1.500000 8.500000 0.000001
v 1.500000 8.500000 2.500001
v 3.000000 9.500000 2.500001
v -34.500000 8.500000 2.500001
v -34.500000 8.500000 0.000001
v -36.000000 9.500000 0.000002
v -36.000000 9.500000 2.500001
v 2.500000 1.000001 -7.000000
v 0.000000 1.000001 -7.000000
v 0.000000 1.000004 -25.000000
v 2.500000 1.000004 -25.000000
v 1.000000 10.000000 1.000002
v -34.000000 10.000000 1.000002
v -34.000000 10.000000 2.500002
v 1.000000 10.000000 2.500002
v 2.500000 1.000000 2.500000
v 0.000000 1.000000 2.500000
v 2.500000 1.000000 0.000000
v -33.000000 5.500000 2.500001
v -33.000000 5.500001 -6.999999
v -34.500000 8.500000 2.500001
v -33.000000 1.000000 2.500000
v -33.000000 1.000000 0.000000
v -33.000000 5.000000 2.500001
vt 1.000000 4.000000
vt 0.000000 4.000000
vt 1.000000 3.812500
vt 0.000000 3.812500
vt 1.000000 3.554688
vt 0.000000 3.554688
vt 1.000000 3.000000
vt 0.000000 3.000000
vt 1.000000 2.148438
vt 0.000000 2.148438
vt 1.000000 2.000000
vt 0.000000 2.000000
vt 1.000000 1.445312
vt 0.000000 1.445312
vt 1.000000 1.187500
vt 0.000000 1.187500
vt 1.000000 1.000000
vt 0.000000 1.000000
vt 1.000000 0.851562
vt 0.000000 0.851562
vt 1.000000 0.000000
vt 0.000000 0.000000
vt 1.000000 1.835938
vt 0.000000 1.835938
vt 1.000000 1.578125
vt 0.000000 1.578125
vt -0.578125 0.000000
vt -0.578125 0.851562
vt -0.835938 0.000000
vt -0.835938 0.851562
vt -1.000000 0.000000
vt -1.000000 0.851562
vt -1.000000 1.000000
vt -0.835938 1.000000
vt -0.578125 1.000000
vt -0.187500 0.851562
vt -0.187500 1.000000
vt -0.445312 0.851562
vt -0.445312 1.000000
vt -0.187500 0.000000
vt -0.445312 0.000000
vt 1.445312 0.000000
vt 2.000000 0.000000
vt 1.445312 0.851562
vt 2.000000 0.851562
vt 1.445312 1.000000
vt 2.000000 1.000000
vt 0.000000 0.679688
vt 1.000000 0.679688
vt 1.578125 0.851562
vt 1.578125 1.000000
vt 1.578125 0.000000
vt 0.000000 3.421875
vt 0.000000 3.164062
vt 1.000000 3.421875
vt 1.187500 0.000000
vn 0.000000 -1.000000 -0.000000
vn 0.000000 0.000000 -1.000000
vn -0.707100 0.707100 0.000000
vn 0.000000 -0.000000 1.000000
vn 0.707100 0.707100 0.000000
vn 0.948700 0.316200 0.000000
vn -0.948700 0.316200 0.000000
vn 0.000000 0.554700 -0.832100
vn 0.894400 -0.447200 -0.000000
vn 0.894400 0.447200 0.000000
vn 0.554700 0.832100 0.000000
vn 0.316200 0.948700 0.000000
vn 0.790100 -0.612900 -0.000000
vn -0.894400 0.447200 0.000000
vn -0.554700 0.832100 0.000000
vn -0.316200 0.948700 0.000000
vn 0.818000 -0.575300 -0.000000
vn 1.000000 0.000000 0.000000
vn -1.000000 0.000000 0.000000
vn -0.818000 -0.575300 0.000000
vn -0.790100 -0.612900 0.000000
vn -0.894400 -0.447200 -0.000000
vn 0.000000 1.000000 0.000000
usemtl _02
s off
f 1/1/1 2/2/1 3/3/1
f 3/3/1 2/2/1 4/4/1
f 3/3/1 4/4/1 5/5/1
f 5/5/1 4/4/1 6/6/1
f 5/5/1 6/6/1 7/7/1
f 7/7/1 6/6/1 8/8/1
f 7/7/2 8/8/2 9/9/2
f 9/9/2 8/8/2 10/10/2
f 9/9/2 10/10/2 11/11/2
f 11/11/2 10/10/2 12/12/2
f 11/11/2 12/12/2 13/11/2
f 13/11/2 12/12/2 14/12/2
f 13/11/2 14/12/2 15/11/2
f 15/11/2 14/12/2 16/12/2
f 15/11/2 16/12/2 17/11/2
f 17/11/2 16/12/2 18/12/2
f 17/11/3 18/12/3 19/13/3
f 19/13/3 18/12/3 20/14/3
f 19/13/3 20/14/3 21/15/3
f 21/15/3 20/14/3 22/16/3
f 21/15/3 22/16/3 23/17/3
f 23/17/3 22/16/3 24/18/3
f 23/17/4 24/18/4 25/17/4
f 25/17/4 24/18/4 26/18/4
f 25/17/4 26/18/4 27/17/4
f 27/17/4 26/18/4 28/18/4
f 27/17/4 28/18/4 29/17/4
f 29/17/4 28/18/4 30/18/4
f 29/17/4 30/18/4 31/19/4
f 31/19/4 30/18/4 32/20/4
f 31/19/4 32/20/4 33/21/4
f 33/21/4 32/20/4 34/22/4
f 35/7/4 36/8/4 37/9/4
f 37/9/4 36/8/4 38/10/4
f 37/9/4 38/10/4 39/11/4
f 39/11/4 38/10/4 40/12/4
f 39/11/4 40/12/4 41/11/4
f 41/11/4 40/12/4 42/12/4
f 41/11/4 42/12/4 43/11/4
f 43/11/4 42/12/4 44/12/4
f 43/11/4 44/12/4 45/11/4
f 45/11/4 44/12/4 46/12/4
f 45/11/5 46/12/5 47/23/5
f 47/23/5 46/12/5 48/24/5
f 47/23/5 48/24/5 49/25/5
f 49/25/5 48/24/5 50/26/5
f 49/25/5 50/26/5 51/17/5
f 51/17/5 50/26/5 52/18/5
f 51/17/2 52/18/2 53/17/2
f 53/17/2 52/18/2 54/18/2
f 53/17/2 54/18/2 55/17/2
f 55/17/2 54/18/2 56/18/2
f 55/17/2 56/18/2 57/17/2
f 57/17/2 56/18/2 58/18/2
f 57/17/2 58/18/2 59/19/2
f 59/19/2 58/18/2 60/20/2
f 59/19/2 60/20/2 61/21/2
f 61/21/2 60/20/2 62/22/2
f 63/12/6 64/12/6 65/18/6
f 65/18/6 64/12/6 66/18/6
f 65/18/4 66/18/4 67/17/4
f 67/17/4 66/18/4 68/17/4
f 67/17/7 68/17/7 69/11/7
f 69/11/7 68/17/7 70/11/7
f 69/11/8 70/11/8 71/12/8
f 71/12/8 70/11/8 72/12/8
f 73/18/9 74/18/9 75/26/9
f 75/26/9 74/18/9 76/26/9
f 75/26/9 76/26/9 77/24/9
f 77/24/9 76/26/9 78/24/9
f 77/24/9 78/24/9 79/12/9
f 79/12/9 78/24/9 80/12/9
f 81/13/10 82/11/10 83/13/10
f 83/13/10 82/11/10 84/11/10
f 83/13/11 84/11/11 85/13/11
f 85/13/11 84/11/11 86/11/11
f 85/13/12 86/11/12 87/13/12
f 87/13/12 86/11/12 88/11/12
f 89/18/13 90/18/13 91/26/13
f 91/26/13 90/18/13 92/26/13
f 91/26/13 92/26/13 93/24/13
f 93/24/13 92/26/13 94/24/13
f 93/24/13 94/24/13 95/12/13
f 95/12/13 94/24/13 96/12/13
f 97/17/14 98/25/14 99/17/14
f 99/17/14 98/25/14 100/25/14
f 99/17/15 100/25/15 101/17/15
f 101/17/15 100/25/15 102/25/15
f 101/17/16 102/25/16 103/17/16
f 103/17/16 102/25/16 104/25/16
f 105/18/17 106/18/17 107/26/17
f 107/26/17 106/18/17 108/26/17
f 107/26/17 108/26/17 109/24/17
f 109/24/17 108/26/17 110/24/17
f 109/24/17 110/24/17 111/12/17
f 111/12/17 110/24/17 112/12/17
f 113/22/18 114/20/18 115/27/18
f 115/27/18 114/20/18 116/28/18
f 115/27/18 116/28/18 117/29/18
f 117/29/18 116/28/18 118/30/18
f 117/29/18 118/30/18 119/31/18
f 119/31/18 118/30/18 120/32/18
f 121/33/18 122/32/18 123/34/18
f 123/34/18 122/32/18 124/30/18
f 123/34/18 124/30/18 125/35/18
f 125/35/18 124/30/18 126/28/18
f 125/35/18 126/28/18 127/18/18
f 127/18/18 126/28/18 128/20/18
f 129/20/19 130/18/19 131/36/19
f 131/36/19 130/18/19 132/37/19
f 131/36/19 132/37/19 133/38/19
f 133/38/19 132/37/19 134/39/19
f 133/38/19 134/39/19 135/32/19
f 135/32/19 134/39/19 136/33/19
f 137/22/19 138/20/19 139/40/19
f 139/40/19 138/20/19 140/36/19
f 139/40/19 140/36/19 141/41/19
f 141/41/19 140/36/19 142/38/19
f 141/41/19 142/38/19 143/31/19
f 143/31/19 142/38/19 144/32/19
f 145/18/20 146/18/20 147/16/20
f 147/16/20 146/18/20 148/16/20
f 147/16/20 148/16/20 149/14/20
f 149/14/20 148/16/20 150/14/20
f 149/14/20 150/14/20 151/12/20
f 151/12/20 150/14/20 152/12/20
f 153/18/21 154/18/21 155/16/21
f 155/16/21 154/18/21 156/16/21
f 155/16/21 156/16/21 157/14/21
f 157/14/21 156/16/21 158/14/21
f 157/14/21 158/14/21 159/12/21
f 159/12/21 158/14/21 160/12/21
f 161/18/22 162/18/22 163/16/22
f 163/16/22 162/18/22 164/16/22
f 163/16/22 164/16/22 165/14/22
f 165/14/22 164/16/22 166/14/22
f 165/14/22 166/14/22 167/12/22
f 167/12/22 166/14/22 168/12/22
f 169/13/12 170/13/12 171/15/12
f 171/15/12 170/13/12 172/15/12
f 171/15/12 172/15/12 173/17/12
f 173/17/12 172/15/12 174/17/12
f 175/42/18 176/43/18 177/44/18
f 177/44/18 176/43/18 178/45/18
f 177/44/18 178/45/18 179/46/18
f 179/46/18 178/45/18 180/47/18
f 181/18/4 182/17/4 183/48/4
f 183/48/4 182/17/4 184/49/4
f 183/48/4 184/49/4 185/22/4
f 185/22/4 184/49/4 186/21/4
f 187/45/19 188/47/19 189/50/19
f 189/50/19 188/47/19 190/51/19
f 189/50/19 190/51/19 191/19/19
f 191/19/19 190/51/19 192/17/19
f 193/43/19 194/45/19 195/52/19
f 195/52/19 194/45/19 196/50/19
f 195/52/19 196/50/19 197/21/19
f 197/21/19 196/50/19 198/19/19
f 199/25/16 200/25/16 201/23/16
f 201/23/16 200/25/16 202/23/16
f 201/23/16 202/23/16 203/11/16
f 203/11/16 202/23/16 204/11/16
f 205/25/14 206/25/14 207/23/14
f 206/25/14 208/11/14 207/23/14
f 207/23/14 208/11/14 209/11/14
f 210/53/1 211/54/1 212/55/1
f 211/54/1 213/7/1 212/55/1
f 214/15/19 215/17/19 216/13/19
f 215/17/10 217/13/10 216/13/10
f 218/44/18 219/19/18 220/42/18
f 219/19/18 221/56/18 220/42/18
f 222/18/4 223/18/4 224/17/4
f 224/17/4 225/17/4 222/18/4
f 226/19/18 227/44/18 228/46/18
f 228/46/18 229/17/18 226/19/18
f 230/23/15 231/23/15 232/11/15
f 232/11/15 233/11/15 230/23/15
f 234/17/11 235/15/11 236/15/11
f 236/15/11 237/17/11 234/17/11
f 238/53/1 239/55/1 240/1/1
f 240/1/1 241/2/1 238/53/1
f 242/18/23 243/17/23 244/11/23
f 244/11/23 245/12/23 242/18/23
f 246/8/1 247/7/1 248/54/1
f 249/17/10 250/13/10 251/17/10
f 252/21/18 253/56/18 254/19/18
o polygon0
v -34.500000 8.500000 0.000001
v 1.500000 8.500000 0.000001
v -36.000000 9.500000 0.000002
v 3.000000 9.500000 0.000002
v -35.000000 11.500000 0.000002
v 2.000000 11.500000 0.000002
v -33.500000 12.500000 -0.999998
v 0.500000 12.500000 -0.999998
v -33.500000 12.500001 -5.999998
v 0.500000 12.500001 -5.999998
v -35.000000 11.500001 -6.999998
v 2.000000 11.500001 -6.999998
v -36.000000 9.500001 -6.999999
v 3.000000 9.500001 -6.999999
v -34.500000 8.500001 -6.999999
v 1.500000 8.500001 -6.999999
v -33.000000 5.500001 -6.999999
v 0.000000 5.500001 -6.999999
v -33.000000 1.000001 -7.000000
v 0.000000 1.000001 -7.000000
v 0.500000 12.500001 -5.999998
v 0.500000 12.500000 -0.999998
v 2.000000 11.500001 -6.999998
v 2.000000 11.500000 0.000002
v 3.000000 9.500001 -6.999999
v 3.000000 9.500000 0.000002
v -33.500000 12.500000 -0.999998
v -33.500000 12.500001 -5.999998
v -35.000000 11.500000 0.000002
v -35.000000 11.500001 -6.999998
v -36.000000 9.500000 0.000002
v -36.000000 9.500001 -6.999999
v -33.000000 5.000004 -24.000000
v 0.000000 5.000004 -24.000000
v -33.000000 4.000004 -25.000000
v 0.000000 4.000004 -25.000000
v -33.000000 1.000004 -25.000000
v 0.000000 1.000004 -25.000000
v 0.000000 5.000001 -6.999999
v 0.000000 1.000001 -7.000000
v 0.000000 5.000004 -24.000000
v 0.000000 1.000004 -25.000000
v 0.000000 4.000004 -25.000000
v 0.000000 1.000004 -25.000000
v 0.000000 1.000004 -25.000000
v 0.000000 1.000004 -25.000000
v -33.000000 1.000004 -25.000000
v -33.000000 1.000004 -24.000000
v -33.000000 4.000004 -25.000000
v -33.000000 5.000004 -24.000000
v -33.000000 1.000004 -24.000000
v 0.000000 1.000004 -25.000000
v -33.000000 1.000001 -7.000000
v 0.000000 1.000001 -7.000000
v -33.000000 5.000001 -6.999999
v 0.000000 5.000001 -6.999999
v 0.000000 1.000000 0.000000
v -33.000000 1.000000 0.000000
v -33.000000 1.000001 -7.000000
v 0.000000 1.000001 -7.000000
v -33.000000 1.000004 -24.000000
v -33.000000 1.000001 -7.000000
v -33.000000 5.000001 -6.999999
v -33.000000 5.000004 -24.000000
v 0.000000 5.000004 -24.000000
v -33.000000 5.000004 -24.000000
v -33.000000 5.000001 -6.999999
v 0.000000 5.000001 -6.999999
vt 1.000000 2.000000
vt 0.000000 2.000000
vt 1.000000 1.000000
vt 0.000000 1.000000
vt 1.000000 0.000000
vt 0.000000 0.000000
vt -1.000000 1.000000
vt -1.000000 0.000000
vt 1.000000 4.000000
vt 0.000000 4.000000
vt 1.000000 3.000000
vt 0.000000 3.000000
vt 2.000000 0.000000
vt 2.000000 1.000000
vn 0.000000 -0.000000 1.000000
vn 0.000000 0.707100 0.707100
vn 0.000000 1.000000 0.000000
vn 0.000000 0.707100 -0.707100
vn 0.000000 0.000000 -1.000000
vn 0.554700 0.832100 0.000000
vn 0.894400 0.447200 0.000000
vn -0.554700 0.832100 0.000000
vn -0.894400 0.447200 0.000000
vn 1.000000 0.000000 0.000000
vn 0.000000 -1.000000 0.000000
vn -1.000000 0.000000 0.000000
usemtl _01
s off
f 255/57/24 256/58/24 257/57/24
f 257/57/24 256/58/24 258/58/24
f 257/57/24 258/58/24 259/57/24
f 259/57/24 258/58/24 260/58/24
f 259/57/25 260/58/25 261/57/25
f 261/57/25 260/58/25 262/58/25
f 261/57/26 262/58/26 263/59/26
f 263/59/26 262/58/26 264/60/26
f 263/59/27 264/60/27 265/59/27
f 265/59/27 264/60/27 266/60/27
f 265/59/28 266/60/28 267/59/28
f 267/59/28 266/60/28 268/60/28
f 267/59/28 268/60/28 269/59/28
f 269/59/28 268/60/28 270/60/28
f 269/59/28 270/60/28 271/59/28
f 271/59/28 270/60/28 272/60/28
f 271/59/28 272/60/28 273/61/28
f 273/61/28 272/60/28 274/62/28
f 275/60/29 276/58/29 277/60/29
f 277/60/29 276/58/29 278/58/29
f 277/60/30 278/58/30 279/60/30
f 279/60/30 278/58/30 280/58/30
f 281/57/31 282/59/31 283/57/31
f 283/57/31 282/59/31 284/59/31
f 283/57/32 284/59/32 285/57/32
f 285/57/32 284/59/32 286/59/32
f 287/59/27 288/60/27 289/59/27
f 289/59/27 288/60/27 290/60/27
f 289/59/28 290/60/28 291/61/28
f 291/61/28 290/60/28 292/62/28
f 293/63/33 294/64/33 295/60/33
f 295/60/33 294/64/33 296/62/33
f 295/60/33 296/62/33 297/60/33
f 297/60/24 296/62/24 298/62/24
f 299/62/24 300/62/24 301/61/24
f 301/61/34 300/62/34 302/61/34
f 301/61/35 302/61/35 303/59/35
f 303/59/35 302/61/35 304/59/35
f 305/65/34 306/66/34 307/67/34
f 307/67/34 306/66/34 308/68/34
f 307/67/24 308/68/24 309/57/24
f 309/57/24 308/68/24 310/58/24
f 311/68/34 312/67/34 313/65/34
f 313/65/34 314/66/34 311/68/34
f 315/61/35 316/69/35 317/70/35
f 317/70/35 318/59/35 315/61/35
f 319/60/26 320/59/26 321/57/26
f 321/57/26 322/58/26 319/60/26
o polygon2
v -38.000000 0.499999 4.000000
v 5.000000 0.499999 4.000000
v -40.000000 0.500000 2.000000
v 7.000000 0.500000 2.000000
v -40.000000 0.500004 -24.000000
v 7.000000 0.500004 -24.000000
v -38.000000 0.500004 -26.000000
v 5.000000 0.500004 -26.000000
vt 0.000000 0.000000
vn 0.000000 1.000000 0.000000
usemtl shade
s off
f 323/71/36 324/71/36 325/71/36
f 325/71/36 324/71/36 326/71/36
f 325/71/36 326/71/36 327/71/36
f 327/71/36 326/71/36 328/71/36
f 327/71/36 328/71/36 329/71/36
f 329/71/36 328/71/36 330/71/36
